HIERARCHY
ROOT pelvis
{
  OFFSET 0 100 0
  CHANNELS 6 Xposition Yposition Zposition Zrotation Xrotation Yrotation
  JOINT pelvis_right_femur
  {
    OFFSET -10.78128 -3.44521 -0.5502486
    CHANNELS 3 Zrotation Xrotation Yrotation
    JOINT right_femur_tibia
    {
      OFFSET -0.8047443 -44.0398 -0.1307829
      CHANNELS 3 Zrotation Xrotation Yrotation
      JOINT right_tibia_foot
      {
        OFFSET 3.006224 -47.83518 -5
        CHANNELS 3 Zrotation Xrotation Yrotation
        End Site
        {
          OFFSET 0 -5 15
        }
      }
    }
  }
  JOINT pelvis_left_femur
  {
    OFFSET 10.78128 -3.44521 -0.5502486
    CHANNELS 3 Zrotation Xrotation Yrotation
    JOINT left_femur_tibia
    {
      OFFSET 0.8047443 -44.0398 -0.1307829
      CHANNELS 3 Zrotation Xrotation Yrotation
      JOINT left_tibia_foot
      {
        OFFSET -4.370144 -48.10324 -4.275266
        CHANNELS 3 Zrotation Xrotation Yrotation
        End Site
        {
          OFFSET 0 -5 15
        }
      }
    }
  }
  JOINT pelvis_spine1
  {
    OFFSET 0 6.468898 -3.129235
    CHANNELS 3 Zrotation Xrotation Yrotation
    JOINT spine1
    {
      OFFSET 0 23.15396 4.99043
      CHANNELS 3 Zrotation Xrotation Yrotation
      JOINT spine2
      {
        OFFSET 0 20.79997 -5.064912
        CHANNELS 3 Zrotation Xrotation Yrotation
        JOINT neck
        {
          OFFSET 0 14.38658 9.616178
          CHANNELS 3 Zrotation Xrotation Yrotation
          End Site
          {
            OFFSET 0 20 0
          }
        }
      }
      JOINT right_manubrium
      {
        OFFSET -5.722621 16.35077 3.967754
        CHANNELS 3 Zrotation Xrotation Yrotation
        JOINT right_clavicle
        {
          OFFSET -13.16364 1.694482 -4.693211
          CHANNELS 3 Zrotation Xrotation Yrotation
          JOINT right_humerus
          {
            OFFSET -28.5034 -0.3100689 -2.792744
            CHANNELS 3 Zrotation Xrotation Yrotation
            JOINT right_radius
            {
              OFFSET -25.15693 0.02248979 -1.271978
              CHANNELS 3 Zrotation Xrotation Yrotation
              End Site
              {
                OFFSET -15 0 0
              }
            }
          }
        }
      }
      JOINT left_manubrium
      {
        OFFSET 5.722621 16.35077 3.967754
        CHANNELS 3 Zrotation Xrotation Yrotation
        JOINT left_clavicle
        {
          OFFSET 13.16364 1.694482 -4.693211
          CHANNELS 3 Zrotation Xrotation Yrotation
          JOINT left_humerus
          {
            OFFSET 29.39168 -1.063119 -2.237045
            CHANNELS 3 Zrotation Xrotation Yrotation
            JOINT left_radius
            {
              OFFSET 24.59957 -0.9528479 0.9047498
              CHANNELS 3 Zrotation Xrotation Yrotation
              End Site
              {
                OFFSET 15 -0 -0
              }
            }
          }
        }
      }
    }
  }
}
MOTION
Frames: 17
Frame Time: 0.0416666666667
1526.536 101.8212 2361.799 5.310184 -2.64358 60.1993 4.377999 12.27924 2.570239 -0 7.92782 -0 -3.808006 -15.93327 -0.9569623 1.620263 -25.82455 -3.762675 -0 32.04469 -0 -6.675098 -7.715498 18.74127 -0.9705459 2.248835 7.380268 -0.1141505 9.183439 -3.184501 1.770569 23.18615 5.473615 3.093557 -17.71351 6.201194 2.405045 -20.10907 11.51591 78.90919 28.68874 -5.340574 -0 0 20.20932 -22.44776 11.62999 13.14587 5.16225 -17.50818 -2.196033 -92.35283 23.11576 21.6646 0 0 -12.90596 0.7869895 10.36793 12.45639
1531.86 100.652 2364.157 4.603818 -2.496354 59.38831 4.013836 15.47068 2.38011 -0 8.571329 -0 -2.853783 -16.66063 -0.056765 2.211124 -27.99799 -3.382921 -0 23.58031 -0 -6.127982 -7.36477 19.31915 -0.8096632 1.791359 7.529755 -0.3778505 8.932117 -2.895794 1.669876 22.81796 5.661151 3.005143 -17.82122 6.354656 1.942848 -21.12566 11.29565 77.83841 28.1212 -3.32045 -0 0 22.34013 -23.89218 11.36232 14.38294 5.057482 -16.61458 -2.177138 -93.02654 22.56983 23.37424 0 0 -11.423 0.5043695 9.885672 12.82922
1537.644 99.463 2366.629 4.1557 -2.155316 58.67967 3.238931 18.06651 2.346977 -0 11.4455 -0 -1.88586 -16.01946 0.4694447 1.871515 -28.43462 -3.733482 -0 17.86828 -0 -5.585154 -7.006931 19.45131 -0.9886687 1.077887 7.661101 -0.5836378 8.722241 -2.744532 1.649698 22.51989 5.787959 2.901831 -17.92635 6.555045 1.622419 -21.60873 10.98972 77.43838 27.70694 -2.267316 -0 0 23.44225 -25.00236 11.22473 15.31182 4.819199 -15.78915 -2.10537 -93.32516 22.23206 24.5243 0 0 -10.12372 0.1923212 9.446594 13.24876
1543.882 98.52367 2369.233 4.194665 -1.730534 58.17843 2.076554 19.73708 2.521333 -0 16.7788 -0 -0.9699368 -13.79934 0.4766312 0.6310707 -27.22312 -4.750704 -0 15.40032 -0 -5.114135 -6.955247 19.30626 -1.531975 0.2736276 7.762876 -0.7758399 8.623349 -2.689572 1.739394 22.3596 5.847352 2.817076 -17.92649 6.794227 1.484838 -21.53467 10.65445 77.72635 27.37799 -2.194081 -0 0 23.50175 -25.75333 11.24951 15.82306 4.526428 -15.14709 -2.004173 -93.27581 22.16261 25.02163 0 0 -9.053318 -0.1606662 9.137242 13.70847
1550.472 98.07518 2371.938 4.753879 -1.381783 57.97526 0.7235703 20.10603 2.890982 -0 24.44622 -0 -0.1819135 -10.1125 -0.05300852 -1.180449 -24.59694 -6.163643 -0 15.83035 -0 -4.753402 -7.364139 19.05818 -2.30349 -0.4301996 7.766693 -0.9845206 8.703532 -2.706905 1.918169 22.34199 5.879168 2.784406 -17.80558 7.066114 1.562404 -21.01393 10.37189 78.61241 27.07725 -2.95564 -0 0 22.72583 -26.16701 11.431 15.8946 4.239644 -14.76611 -1.955231 -92.98897 22.32141 24.94692 0 0 -8.191021 -0.5075636 8.999546 14.16561
1557.22 98.27957 2374.662 5.672241 -1.247704 58.12959 -0.4972959 18.80921 3.342873 -0 33.78833 -0 0.3706576 -5.400121 -0.9918454 -3.086785 -20.91308 -7.619926 -0 18.12368 -0 -4.480538 -8.212004 18.81874 -3.064459 -0.8545529 7.577459 -1.207413 9.010776 -2.804971 2.114896 22.41808 5.955692 2.832473 -17.63018 7.354356 1.868292 -20.24778 10.22876 79.91494 26.82523 -4.309296 -0 0 21.43751 -26.29765 11.73124 15.59505 4.001308 -14.70161 -2.071061 -92.58481 22.57467 24.46666 0 0 -7.535726 -0.7259045 9.030409 14.50886
1563.865 99.1544 2377.287 6.665506 -1.390274 58.64921 -1.262147 15.61311 3.703981 -0 43.50254 -0 0.5784785 -0.4550913 -2.113253 -4.641958 -16.59734 -8.816413 -0 20.80607 -0 -4.220648 -9.357571 18.59506 -3.566484 -0.881004 7.114015 -1.400013 9.533927 -3.024167 2.234279 22.51433 6.141054 2.958884 -17.49395 7.631091 2.366089 -19.45539 10.27956 81.40849 26.70858 -5.991894 -0 0 19.96759 -26.20561 12.09861 15.06135 3.839369 -14.98048 -2.444939 -92.11079 22.75983 23.70455 0 0 -7.195288 -0.6664788 9.182118 14.5856
1570.159 100.5273 2379.699 7.442799 -1.756873 59.48113 -1.42375 10.56909 3.828092 -0 51.74513 -0 0.4079967 3.645745 -3.196244 -5.575542 -12.02994 -9.577912 -0 22.36414 -0 -3.891829 -10.64552 18.28116 -3.671287 -0.5092754 6.352881 -1.479826 10.16056 -3.420217 2.204105 22.57495 6.438697 3.10186 -17.43958 7.865284 2.941697 -18.78036 10.50313 82.89565 26.80864 -7.80281 -0 0 18.53772 -25.92363 12.48723 14.45101 3.772375 -15.58012 -3.087339 -91.47517 22.78288 22.61025 0 0 -7.435065 -0.2471048 9.37061 14.2777
1575.958 102.0595 2381.847 7.824602 -2.177054 60.53035 -1.120707 4.103767 3.63493 -0 56.57344 -0 -0.03765059 5.863732 -4.140897 -5.878678 -7.408509 -9.88246 -0 21.79375 -0 -3.45177 -12.01213 17.71851 -3.445229 0.1164537 5.357224 -1.356177 10.6805 -4.031598 2.020174 22.59806 6.766576 3.152017 -17.41407 8.032426 3.414258 -18.21449 10.78268 84.27504 27.1315 -9.666109 -0 0 17.15701 -25.43681 12.85733 13.87548 3.824692 -16.42519 -3.885665 -90.45551 22.66648 20.91178 0 0 -8.608835 0.4926686 9.513412 13.54916
1581.276 103.3531 2383.782 7.791703 -2.425654 61.69481 -0.7029683 -3.054292 3.079022 -0 56.66105 -0 -0.572258 5.721556 -4.984283 -5.780345 -2.719313 -9.844894 -0 19.04564 -0 -2.910777 -13.50564 16.83053 -3.135413 0.7604697 4.26655 -0.9822413 10.87286 -4.841909 1.752339 22.63288 6.998719 3.024424 -17.31233 8.119928 3.610292 -17.61054 10.94919 85.55731 27.60635 -11.62444 -0 0 15.6316 -24.70179 13.15693 13.35063 4.042053 -17.4198 -4.633653 -88.84354 22.48024 18.26838 0 0 -10.93813 1.440924 9.588165 12.417
1586.25 104.0907 2385.632 7.434665 -2.342404 62.88607 -0.5101121 -10.09102 2.147837 -0 51.93161 -0 -1.074887 3.627481 -5.784708 -5.595283 2.103509 -9.662352 -0 15.01679 -0 -2.326433 -15.18973 15.72849 -3.006102 1.209398 3.242162 -0.3947046 10.63227 -5.763644 1.502486 22.72911 7.050641 2.73619 -17.08542 8.130597 3.466659 -16.80557 10.88117 86.80361 28.14316 -13.74586 -0 0 13.74964 -23.69573 13.31711 12.8072 4.4747 -18.48142 -5.128075 -86.66995 22.24028 14.60153 0 0 -14.27336 2.493484 9.654938 10.93093
1591.065 104.1294 2387.54 6.86619 -1.927726 64.03072 -0.6585372 -16.33424 0.9375189 -0 43.68206 -0 -1.5498 0.6531414 -6.524097 -5.53552 6.964281 -9.535398 -0 11.04998 -0 -1.813732 -17.02527 14.66397 -3.15984 1.36466 2.401799 0.2961202 10.02686 -6.663154 1.350531 22.88584 6.931156 2.405202 -16.80566 8.084569 3.073268 -15.76126 10.5803 88.03395 28.6683 -16.00728 -0 0 11.51309 -22.45086 13.28205 12.15588 5.124774 -19.53463 -5.265881 -84.30237 21.95568 10.33679 0 0 -18.06505 3.541699 9.814791 9.252645
1595.877 103.5123 2389.596 6.174928 -1.33872 65.07162 -0.979606 -21.38932 -0.2978327 -0 34.05395 -0 -2.040238 -2.06496 -7.128005 -5.621185 11.55214 -9.601015 -0 8.307142 -0 -1.550706 -18.84522 13.85634 -3.489915 1.258075 1.787822 0.9589679 9.241772 -7.412602 1.327118 23.05066 6.720794 2.168688 -16.62339 8.015032 2.60976 -14.59978 10.15436 89.1849 29.11058 -18.25246 -0 0 9.198122 -21.05045 13.0465 11.35356 5.909461 -20.4869 -5.076508 -82.26821 21.77102 6.280199 0 0 -21.59932 4.410202 10.14877 7.723048
1600.777 102.4165 2391.827 5.424575 -0.7956729 65.97385 -1.142628 -25.15783 -1.227245 -0 25.15616 -0 -2.544972 -3.821376 -7.530257 -5.730131 15.47704 -9.900275 -0 7.405607 -0 -1.732862 -20.42087 13.3536 -3.775721 1.003483 1.37965 1.495692 8.471105 -7.934046 1.418045 23.15845 6.512008 2.102724 -16.66795 7.957357 2.237889 -13.51906 9.737925 90.14165 29.3941 -20.25292 -0 0 7.19686 -19.60302 12.66435 10.42835 6.682807 -21.23654 -4.682561 -80.95575 21.94416 3.210446 0 0 -24.30633 4.884712 10.67714 6.754501
1605.807 101.0806 2394.224 4.662478 -0.4749539 66.72469 -0.8622781 -27.74867 -1.604241 -0 18.35342 -0 -3.022826 -4.474123 -7.711807 -5.714434 18.44699 -10.37517 -0 8.424542 -0 -2.481744 -21.53384 13.03207 -3.818905 0.727541 1.127409 1.867054 7.843444 -8.214312 1.583995 23.16672 6.362452 2.199808 -16.98064 7.936078 2.038168 -12.67531 9.426866 90.80673 29.46705 -21.81354 -0 0 5.797275 -18.21678 12.22655 9.462688 7.297907 -21.71045 -4.227854 -80.47889 22.62846 1.541663 0 0 -25.92946 4.838148 11.33712 6.600881
1610.983 99.74098 2396.771 3.92697 -0.4530865 67.32389 -0.03549781 -29.32473 -1.365443 -0 14.05569 -0 -3.434733 -4.294435 -7.704867 -5.491261 20.3507 -10.8924 -0 11.15109 -0 -3.768688 -21.9961 12.70724 -3.525645 0.5161824 0.9828693 2.08766 7.410172 -8.291254 1.780593 23.06737 6.280818 2.3949 -17.51112 7.955665 2.012751 -12.12101 9.259834 91.15105 29.33148 -22.845 -0 0 5.067878 -16.9805 11.82876 8.556593 7.657089 -21.88872 -3.819754 -80.74042 23.7129 1.256326 0 0 -26.50099 4.331608 11.98957 7.207004
1616.328 98.59839 2399.455 3.262618 -0.7128453 67.77037 1.255765 -29.95347 -0.6047405 -0 11.97839 -0 -3.763598 -3.738504 -7.573351 -5.066125 21.21669 -11.29551 -0 15.36698 -0 -5.405793 -21.63295 12.25992 -2.912996 0.394634 0.9200424 2.201997 7.174921 -8.223713 1.971697 22.88415 6.236888 2.603687 -18.15287 7.999527 2.121704 -11.81962 9.233972 91.21601 29.04074 -23.36433 -0 0 4.887999 -15.952 11.54522 7.794652 7.717969 -21.79393 -3.511782 -81.53694 24.87685 2.04406 0 0 -26.20741 3.59573 12.47152 8.253101
